<svg xmlns="http://www.w3.org/2000/svg" xmlns:xlink="http://www.w3.org/1999/xlink" xmlns:lucid="lucid" width="1400" height="408"><g transform="translate(-60 -12)" lucid:page-tab-id="0_0"><path d="M100 70h240v60H100z" fill="none"/><use xlink:href="#a" transform="matrix(1,0,0,1,100,70) translate(117.5 33.6)"/><path d="M700 70h240v60H700z" fill="none"/><use xlink:href="#b" transform="matrix(1,0,0,1,700,70) translate(97.025 33.6)"/><path d="M1100 70h240v60h-240z" fill="none"/><use xlink:href="#c" transform="matrix(1,0,0,1,1100,70) translate(92.525 33.6)"/><path d="M400 80h240v40H400z" fill="none"/><use xlink:href="#d" transform="matrix(1,0,0,1,400,80) translate(88.05 24.1)"/><path d="M620 32h160v40H620z" stroke="#000" stroke-width="2" fill="#fff"/><use xlink:href="#e" transform="matrix(1,0,0,1,625,37) translate(50.025 18.275)"/><path d="M740 160h120v40H740z" stroke="#000" stroke-width="2" fill="#f9d2de"/><use xlink:href="#f" transform="matrix(1,0,0,1,745,165) translate(25.549999999999997 18.275)"/><path d="M460 160h120v40H460z" stroke="#000" stroke-width="2" fill="#ffeca9"/><use xlink:href="#g" transform="matrix(1,0,0,1,465,165) translate(17.074999999999996 18.275)"/><path d="M1120 160h160v40h-160z" stroke="#000" stroke-width="2" fill="#c7e8ac"/><use xlink:href="#h" transform="matrix(1,0,0,1,1125,165) translate(41.05 18.275)"/><path d="M160 160h120v40H160z" stroke="#000" stroke-width="2" fill="#c1e4f7"/><use xlink:href="#i" transform="matrix(1,0,0,1,165,165) translate(22.074999999999996 18.275)"/><path d="M700 74v42H220v24.5" stroke="#000" stroke-width="2" fill="none"/><path d="M701 74.03h-2V73h2z"/><path d="M220 155.76l-4.64-14.26h9.28z" stroke="#000" stroke-width="2"/><path d="M700 74v42H520v24.5" stroke="#000" stroke-width="2" fill="none"/><path d="M701 74.03h-2V73h2z"/><path d="M520 155.76l-4.64-14.26h9.28z" stroke="#000" stroke-width="2"/><path d="M700 74v42h100v24.5" stroke="#000" stroke-width="2" fill="none"/><path d="M701 74.03h-2V73h2z"/><path d="M800 155.76l-4.64-14.26h9.28z" stroke="#000" stroke-width="2"/><path d="M700 74v42h500v24.5" stroke="#000" stroke-width="2" fill="none"/><path d="M701 74.03h-2V73h2z"/><path d="M1200 155.76l-4.64-14.26h9.28z" stroke="#000" stroke-width="2"/><path d="M80 360h140v40H80z" stroke="#000" stroke-width="2" fill="#c1e4f7"/><use xlink:href="#j" transform="matrix(1,0,0,1,85,365) translate(1 18.275)"/><path d="M380 360h140v40H380z" stroke="#000" stroke-width="2" fill="#ffeca9"/><use xlink:href="#j" transform="matrix(1,0,0,1,385,365) translate(1 18.275)"/><path d="M520 202v78h-68.25v60.5" stroke="#000" stroke-width="2" fill="none"/><path d="M521 202.03h-2V201h2z"/><path d="M451.75 355.76l-4.64-14.26h9.3z" stroke="#000" stroke-width="2"/><path d="M220 202v78h-70v60.5" stroke="#000" stroke-width="2" fill="none"/><path d="M221 202.03h-2V201h2z"/><path d="M150 355.76l-4.64-14.26h9.28z" stroke="#000" stroke-width="2"/><path d="M240 360h120v40H240z" stroke="#000" stroke-width="2" fill="#c1e4f7"/><use xlink:href="#k" transform="matrix(1,0,0,1,245,365) translate(20.549999999999997 18.275)"/><path d="M220 202v78h78.5v60.5" stroke="#000" stroke-width="2" fill="none"/><path d="M221 202.03h-2V201h2z"/><path d="M298.5 355.76l-4.64-14.26h9.28z" stroke="#000" stroke-width="2"/><path d="M540 360h120v40H540z" stroke="#000" stroke-width="2" fill="#ffeca9"/><use xlink:href="#l" transform="matrix(1,0,0,1,545,365) translate(16.574999999999996 18.275)"/><path d="M520 202v78h80v60.5" stroke="#000" stroke-width="2" fill="none"/><path d="M521 202.03h-2V201h2z"/><path d="M600 355.76l-4.64-14.26h9.28z" stroke="#000" stroke-width="2"/><path d="M810 260h120v40H810z" stroke="#000" stroke-width="2" fill="#f9d2de"/><use xlink:href="#m" transform="matrix(1,0,0,1,815,265) translate(7.099999999999994 18.275)"/><path d="M690 260.83h100v38.34H690z" stroke="#000" stroke-width="2" fill="#f9d2de"/><use xlink:href="#n" transform="matrix(1,0,0,1,695,265.8333333333333) translate(4.049999999999997 18.025)"/><path d="M670 360h140v40H670z" stroke="#000" stroke-width="2" fill="#f9d2de"/><use xlink:href="#o" transform="matrix(1,0,0,1,675,365) translate(0.2749999999999915 18.275)"/><path d="M800 202v28h70v10.5" stroke="#000" stroke-width="2" fill="none"/><path d="M801 202.03h-2V201h2z"/><path d="M870 255.76l-4.64-14.26h9.28z" stroke="#000" stroke-width="2"/><path d="M800 202v28.42h-60v10.9" stroke="#000" stroke-width="2" fill="none"/><path d="M801 202.03h-2V201h2z"/><path d="M740 256.6l-4.64-14.27h9.28z" stroke="#000" stroke-width="2"/><path d="M740 301.17v39.33" stroke="#000" stroke-width="2" fill="none"/><path d="M741 301.2h-2v-1.03h2z"/><path d="M740 355.76l-4.64-14.26h9.28z" stroke="#000" stroke-width="2"/><path d="M965 260h160v40H965z" stroke="#000" stroke-width="2" fill="#c7e8ac"/><use xlink:href="#p" transform="matrix(1,0,0,1,970,265) translate(3.625 18.275)"/><path d="M1140 260h120v40h-120z" stroke="#000" stroke-width="2" fill="#c7e8ac"/><use xlink:href="#q" transform="matrix(1,0,0,1,1145,265) translate(7.074999999999996 18.275)"/><path d="M1280 260h160v40h-160z" stroke="#000" stroke-width="2" fill="#c7e8ac"/><use xlink:href="#r" transform="matrix(1,0,0,1,1285,265) translate(3.075000000000003 18.275)"/><path d="M1200 202v38.5" stroke="#000" stroke-width="2" fill="none"/><path d="M1201 202.03h-2V201h2z"/><path d="M1200 255.76l-4.64-14.26h9.28z" stroke="#000" stroke-width="2"/><path d="M1200 202v28h-155v10.5" stroke="#000" stroke-width="2" fill="none"/><path d="M1201 202.03h-2V201h2z"/><path d="M1045 255.76l-4.64-14.26h9.28z" stroke="#000" stroke-width="2"/><path d="M1200 202v28h160v10.5" stroke="#000" stroke-width="2" fill="none"/><path d="M1201 202.03h-2V201h2z"/><path d="M1360 255.76l-4.64-14.26h9.28z" stroke="#000" stroke-width="2"/><path d="M965 360h160v40H965z" stroke="#000" stroke-width="2" fill="#c7e8ac"/><use xlink:href="#s" transform="matrix(1,0,0,1,970,365) translate(14.624999999999993 18.275)"/><path d="M1280 360h160v40h-160z" stroke="#000" stroke-width="2" fill="#c7e8ac"/><use xlink:href="#t" transform="matrix(1,0,0,1,1285,365) translate(18.574999999999996 18.275)"/><path d="M1045 302v38.5" stroke="#000" stroke-width="2" fill="none"/><path d="M1046 302.03h-2V301h2z"/><path d="M1045 355.76l-4.64-14.26h9.28z" stroke="#000" stroke-width="2"/><path d="M1360 302v38.5" stroke="#000" stroke-width="2" fill="none"/><path d="M1361 302.03h-2V301h2z"/><path d="M1360 355.76l-4.64-14.26h9.28z" stroke="#000" stroke-width="2"/><defs><path d="M0 4l72-265h28L28 4H0" id="u"/><use transform="matrix(0.05,0,0,0.05,0,0)" xlink:href="#u" id="a"/><path d="M63-220v92h138v28H63V0H30v-248h175v28H63" id="v"/><path d="M100-194c63 0 86 42 84 106H49c0 40 14 67 53 68 26 1 43-12 49-29l28 8c-11 28-37 45-77 45C44 4 14-33 15-96c1-61 26-98 85-98zm52 81c6-60-76-77-97-28-3 7-6 17-6 28h103" id="w"/><path d="M85-194c31 0 48 13 60 33l-1-100h32l1 261h-30c-2-10 0-23-3-31C134-8 116 4 85 4 32 4 16-35 15-94c0-66 23-100 70-100zm9 24c-40 0-46 34-46 75 0 40 6 74 45 74 42 0 51-32 51-76 0-42-9-74-50-73" id="x"/><g id="b"><use transform="matrix(0.05,0,0,0.05,0,0)" xlink:href="#u"/><use transform="matrix(0.05,0,0,0.05,5,0)" xlink:href="#v"/><use transform="matrix(0.05,0,0,0.05,15.950000000000001,0)" xlink:href="#w"/><use transform="matrix(0.05,0,0,0.05,25.950000000000003,0)" xlink:href="#w"/><use transform="matrix(0.05,0,0,0.05,35.95,0)" xlink:href="#x"/></g><path d="M143 4C61 4 22-44 18-125c-5-107 100-154 193-111 17 8 29 25 37 43l-32 9c-13-25-37-40-76-40-61 0-88 39-88 99 0 61 29 100 91 101 35 0 62-11 79-27v-45h-74v-28h105v86C228-13 192 4 143 4" id="y"/><path d="M114-163C36-179 61-72 57 0H25l-1-190h30c1 12-1 29 2 39 6-27 23-49 58-41v29" id="z"/><path d="M100-194c62-1 85 37 85 99 1 63-27 99-86 99S16-35 15-95c0-66 28-99 85-99zM99-20c44 1 53-31 53-75 0-43-8-75-51-75s-53 32-53 75 10 74 51 75" id="A"/><path d="M84 4C-5 8 30-112 23-190h32v120c0 31 7 50 39 49 72-2 45-101 50-169h31l1 190h-30c-1-10 1-25-2-33-11 22-28 36-60 37" id="B"/><path d="M115-194c55 1 70 41 70 98S169 2 115 4C84 4 66-9 55-30l1 105H24l-1-265h31l2 30c10-21 28-34 59-34zm-8 174c40 0 45-34 45-75s-6-73-45-74c-42 0-51 32-51 76 0 43 10 73 51 73" id="C"/><g id="c"><use transform="matrix(0.05,0,0,0.05,0,0)" xlink:href="#u"/><use transform="matrix(0.05,0,0,0.05,5,0)" xlink:href="#y"/><use transform="matrix(0.05,0,0,0.05,19,0)" xlink:href="#z"/><use transform="matrix(0.05,0,0,0.05,24.95,0)" xlink:href="#A"/><use transform="matrix(0.05,0,0,0.05,34.95,0)" xlink:href="#B"/><use transform="matrix(0.05,0,0,0.05,44.95,0)" xlink:href="#C"/></g><path d="M185-189c-5-48-123-54-124 2 14 75 158 14 163 119 3 78-121 87-175 55-17-10-28-26-33-46l33-7c5 56 141 63 141-1 0-78-155-14-162-118-5-82 145-84 179-34 5 7 8 16 11 25" id="D"/><path d="M24-231v-30h32v30H24zM24 0v-190h32V0H24" id="E"/><path d="M177-190C167-65 218 103 67 71c-23-6-38-20-44-43l32-5c15 47 100 32 89-28v-30C133-14 115 1 83 1 29 1 15-40 15-95c0-56 16-97 71-98 29-1 48 16 59 35 1-10 0-23 2-32h30zM94-22c36 0 50-32 50-73 0-42-14-75-50-75-39 0-46 34-46 75s6 73 46 73" id="F"/><path d="M117-194c89-4 53 116 60 194h-32v-121c0-31-8-49-39-48C34-167 62-67 57 0H25l-1-190h30c1 10-1 24 2 32 11-22 29-35 61-36" id="G"/><path d="M232-93c-1 65-40 97-104 97C67 4 28-28 28-90v-158h33c8 89-33 224 67 224 102 0 64-133 71-224h33v155" id="H"/><g id="d"><use transform="matrix(0.05,0,0,0.05,0,0)" xlink:href="#u"/><use transform="matrix(0.05,0,0,0.05,5,0)" xlink:href="#D"/><use transform="matrix(0.05,0,0,0.05,17,0)" xlink:href="#E"/><use transform="matrix(0.05,0,0,0.05,20.95,0)" xlink:href="#F"/><use transform="matrix(0.05,0,0,0.05,30.950000000000003,0)" xlink:href="#G"/><use transform="matrix(0.05,0,0,0.05,40.95,0)" xlink:href="#H"/><use transform="matrix(0.05,0,0,0.05,53.900000000000006,0)" xlink:href="#C"/></g><path d="M205 0l-28-72H64L36 0H1l101-248h38L239 0h-34zm-38-99l-47-123c-12 45-31 82-46 123h93" id="I"/><path d="M33 0v-38h34V0H33" id="J"/><path d="M24-231v-30h32v30H24zM-9 49c24 4 33-6 33-30v-209h32V24c2 40-23 58-65 49V49" id="K"/><path d="M135-143c-3-34-86-38-87 0 15 53 115 12 119 90S17 21 10-45l28-5c4 36 97 45 98 0-10-56-113-15-118-90-4-57 82-63 122-42 12 7 21 19 24 35" id="L"/><g id="e"><use transform="matrix(0.05,0,0,0.05,0,0)" xlink:href="#I"/><use transform="matrix(0.05,0,0,0.05,12,0)" xlink:href="#C"/><use transform="matrix(0.05,0,0,0.05,22,0)" xlink:href="#C"/><use transform="matrix(0.05,0,0,0.05,32,0)" xlink:href="#J"/><use transform="matrix(0.05,0,0,0.05,37,0)" xlink:href="#K"/><use transform="matrix(0.05,0,0,0.05,40.95,0)" xlink:href="#L"/></g><g id="f"><use transform="matrix(0.05,0,0,0.05,0,0)" xlink:href="#v"/><use transform="matrix(0.05,0,0,0.05,10.950000000000001,0)" xlink:href="#w"/><use transform="matrix(0.05,0,0,0.05,20.950000000000003,0)" xlink:href="#w"/><use transform="matrix(0.05,0,0,0.05,30.950000000000003,0)" xlink:href="#x"/><use transform="matrix(0.05,0,0,0.05,40.95,0)" xlink:href="#J"/><use transform="matrix(0.05,0,0,0.05,45.95,0)" xlink:href="#K"/><use transform="matrix(0.05,0,0,0.05,49.900000000000006,0)" xlink:href="#L"/></g><path d="M197 0v-115H63V0H30v-248h33v105h134v-105h34V0h-34" id="M"/><path d="M210-169c-67 3-38 105-44 169h-31v-121c0-29-5-50-35-48C34-165 62-65 56 0H25l-1-190h30c1 10-1 24 2 32 10-44 99-50 107 0 11-21 27-35 58-36 85-2 47 119 55 194h-31v-121c0-29-5-49-35-48" id="N"/><path d="M101-251c82-7 93 87 43 132L82-64C71-53 59-42 53-27h129V0H18c2-99 128-94 128-182 0-28-16-43-45-43s-46 15-49 41l-32-3c6-41 34-60 81-64" id="O"/><g id="g"><use transform="matrix(0.05,0,0,0.05,0,0)" xlink:href="#M"/><use transform="matrix(0.05,0,0,0.05,12.950000000000001,0)" xlink:href="#A"/><use transform="matrix(0.05,0,0,0.05,22.950000000000003,0)" xlink:href="#N"/><use transform="matrix(0.05,0,0,0.05,37.900000000000006,0)" xlink:href="#w"/><use transform="matrix(0.05,0,0,0.05,47.900000000000006,0)" xlink:href="#O"/><use transform="matrix(0.05,0,0,0.05,57.900000000000006,0)" xlink:href="#J"/><use transform="matrix(0.05,0,0,0.05,62.900000000000006,0)" xlink:href="#K"/><use transform="matrix(0.05,0,0,0.05,66.85000000000001,0)" xlink:href="#L"/></g><g id="h"><use transform="matrix(0.05,0,0,0.05,0,0)" xlink:href="#y"/><use transform="matrix(0.05,0,0,0.05,14,0)" xlink:href="#z"/><use transform="matrix(0.05,0,0,0.05,19.95,0)" xlink:href="#A"/><use transform="matrix(0.05,0,0,0.05,29.950000000000003,0)" xlink:href="#B"/><use transform="matrix(0.05,0,0,0.05,39.95,0)" xlink:href="#C"/><use transform="matrix(0.05,0,0,0.05,49.95,0)" xlink:href="#J"/><use transform="matrix(0.05,0,0,0.05,54.95,0)" xlink:href="#K"/><use transform="matrix(0.05,0,0,0.05,58.900000000000006,0)" xlink:href="#L"/></g><g id="i"><use transform="matrix(0.05,0,0,0.05,0,0)" xlink:href="#M"/><use transform="matrix(0.05,0,0,0.05,12.950000000000001,0)" xlink:href="#A"/><use transform="matrix(0.05,0,0,0.05,22.950000000000003,0)" xlink:href="#N"/><use transform="matrix(0.05,0,0,0.05,37.900000000000006,0)" xlink:href="#w"/><use transform="matrix(0.05,0,0,0.05,47.900000000000006,0)" xlink:href="#J"/><use transform="matrix(0.05,0,0,0.05,52.900000000000006,0)" xlink:href="#K"/><use transform="matrix(0.05,0,0,0.05,56.85,0)" xlink:href="#L"/></g><path d="M127-220V0H93v-220H8v-28h204v28h-85" id="P"/><path d="M59-47c-2 24 18 29 38 22v24C64 9 27 4 27-40v-127H5v-23h24l9-43h21v43h35v23H59v120" id="Q"/><path d="M24 0v-261h32V0H24" id="R"/><path d="M212-179c-10-28-35-45-73-45-59 0-87 40-87 99 0 60 29 101 89 101 43 0 62-24 78-52l27 14C228-24 195 4 139 4 59 4 22-46 18-125c-6-104 99-153 187-111 19 9 31 26 39 46" id="S"/><path d="M141-36C126-15 110 5 73 4 37 3 15-17 15-53c-1-64 63-63 125-63 3-35-9-54-41-54-24 1-41 7-42 31l-33-3c5-37 33-52 76-52 45 0 72 20 72 64v82c-1 20 7 32 28 27v20c-31 9-61-2-59-35zM48-53c0 20 12 33 32 33 41-3 63-29 60-74-43 2-92-5-92 41" id="T"/><g id="j"><use transform="matrix(0.05,0,0,0.05,0,0)" xlink:href="#P"/><use transform="matrix(0.05,0,0,0.05,10.3,0)" xlink:href="#E"/><use transform="matrix(0.05,0,0,0.05,14.25,0)" xlink:href="#Q"/><use transform="matrix(0.05,0,0,0.05,19.25,0)" xlink:href="#R"/><use transform="matrix(0.05,0,0,0.05,23.2,0)" xlink:href="#w"/><use transform="matrix(0.05,0,0,0.05,33.2,0)" xlink:href="#S"/><use transform="matrix(0.05,0,0,0.05,46.150000000000006,0)" xlink:href="#A"/><use transform="matrix(0.05,0,0,0.05,56.150000000000006,0)" xlink:href="#G"/><use transform="matrix(0.05,0,0,0.05,66.15,0)" xlink:href="#Q"/><use transform="matrix(0.05,0,0,0.05,71.15,0)" xlink:href="#T"/><use transform="matrix(0.05,0,0,0.05,81.15,0)" xlink:href="#E"/><use transform="matrix(0.05,0,0,0.05,85.10000000000001,0)" xlink:href="#G"/><use transform="matrix(0.05,0,0,0.05,95.10000000000001,0)" xlink:href="#w"/><use transform="matrix(0.05,0,0,0.05,105.10000000000001,0)" xlink:href="#z"/><use transform="matrix(0.05,0,0,0.05,110.05000000000001,0)" xlink:href="#J"/><use transform="matrix(0.05,0,0,0.05,115.05000000000001,0)" xlink:href="#K"/><use transform="matrix(0.05,0,0,0.05,119,0)" xlink:href="#L"/></g><path d="M33 0v-248h34V0H33" id="U"/><g id="k"><use transform="matrix(0.05,0,0,0.05,0,0)" xlink:href="#D"/><use transform="matrix(0.05,0,0,0.05,12,0)" xlink:href="#E"/><use transform="matrix(0.05,0,0,0.05,15.949999999999998,0)" xlink:href="#F"/><use transform="matrix(0.05,0,0,0.05,25.950000000000003,0)" xlink:href="#G"/><use transform="matrix(0.05,0,0,0.05,35.95,0)" xlink:href="#U"/><use transform="matrix(0.05,0,0,0.05,40.95,0)" xlink:href="#G"/><use transform="matrix(0.05,0,0,0.05,50.95,0)" xlink:href="#J"/><use transform="matrix(0.05,0,0,0.05,55.95,0)" xlink:href="#K"/><use transform="matrix(0.05,0,0,0.05,59.900000000000006,0)" xlink:href="#L"/></g><g id="l"><use transform="matrix(0.05,0,0,0.05,0,0)" xlink:href="#D"/><use transform="matrix(0.05,0,0,0.05,12,0)" xlink:href="#E"/><use transform="matrix(0.05,0,0,0.05,15.949999999999998,0)" xlink:href="#F"/><use transform="matrix(0.05,0,0,0.05,25.950000000000003,0)" xlink:href="#G"/><use transform="matrix(0.05,0,0,0.05,35.95,0)" xlink:href="#H"/><use transform="matrix(0.05,0,0,0.05,48.900000000000006,0)" xlink:href="#C"/><use transform="matrix(0.05,0,0,0.05,58.900000000000006,0)" xlink:href="#J"/><use transform="matrix(0.05,0,0,0.05,63.900000000000006,0)" xlink:href="#K"/><use transform="matrix(0.05,0,0,0.05,67.85000000000001,0)" xlink:href="#L"/></g><path d="M30-248c87 1 191-15 191 75 0 78-77 80-158 76V0H30v-248zm33 125c57 0 124 11 124-50 0-59-68-47-124-48v98" id="V"/><g id="m"><use transform="matrix(0.05,0,0,0.05,0,0)" xlink:href="#V"/><use transform="matrix(0.05,0,0,0.05,12,0)" xlink:href="#A"/><use transform="matrix(0.05,0,0,0.05,22,0)" xlink:href="#L"/><use transform="matrix(0.05,0,0,0.05,31,0)" xlink:href="#Q"/><use transform="matrix(0.05,0,0,0.05,36,0)" xlink:href="#v"/><use transform="matrix(0.05,0,0,0.05,46.95,0)" xlink:href="#A"/><use transform="matrix(0.05,0,0,0.05,56.95,0)" xlink:href="#z"/><use transform="matrix(0.05,0,0,0.05,62.900000000000006,0)" xlink:href="#N"/><use transform="matrix(0.05,0,0,0.05,77.85000000000001,0)" xlink:href="#J"/><use transform="matrix(0.05,0,0,0.05,82.85000000000001,0)" xlink:href="#K"/><use transform="matrix(0.05,0,0,0.05,86.80000000000001,0)" xlink:href="#L"/></g><path d="M30 0v-248h33v221h125V0H30" id="W"/><g id="n"><use transform="matrix(0.05,0,0,0.05,0,0)" xlink:href="#V"/><use transform="matrix(0.05,0,0,0.05,12,0)" xlink:href="#A"/><use transform="matrix(0.05,0,0,0.05,22,0)" xlink:href="#L"/><use transform="matrix(0.05,0,0,0.05,31,0)" xlink:href="#Q"/><use transform="matrix(0.05,0,0,0.05,36,0)" xlink:href="#W"/><use transform="matrix(0.05,0,0,0.05,46,0)" xlink:href="#E"/><use transform="matrix(0.05,0,0,0.05,49.95,0)" xlink:href="#L"/><use transform="matrix(0.05,0,0,0.05,58.95,0)" xlink:href="#Q"/><use transform="matrix(0.05,0,0,0.05,63.95,0)" xlink:href="#J"/><use transform="matrix(0.05,0,0,0.05,68.95,0)" xlink:href="#K"/><use transform="matrix(0.05,0,0,0.05,72.9,0)" xlink:href="#L"/></g><path d="M179-190L93 31C79 59 56 82 12 73V49c39 6 53-20 64-50L1-190h34L92-34l54-156h33" id="X"/><g id="o"><use transform="matrix(0.05,0,0,0.05,0,0)" xlink:href="#V"/><use transform="matrix(0.05,0,0,0.05,12,0)" xlink:href="#A"/><use transform="matrix(0.05,0,0,0.05,22,0)" xlink:href="#L"/><use transform="matrix(0.05,0,0,0.05,31,0)" xlink:href="#Q"/><use transform="matrix(0.05,0,0,0.05,36,0)" xlink:href="#D"/><use transform="matrix(0.05,0,0,0.05,48,0)" xlink:href="#B"/><use transform="matrix(0.05,0,0,0.05,58,0)" xlink:href="#N"/><use transform="matrix(0.05,0,0,0.05,72.95,0)" xlink:href="#N"/><use transform="matrix(0.05,0,0,0.05,87.9,0)" xlink:href="#T"/><use transform="matrix(0.05,0,0,0.05,97.9,0)" xlink:href="#z"/><use transform="matrix(0.05,0,0,0.05,103.85000000000001,0)" xlink:href="#X"/><use transform="matrix(0.05,0,0,0.05,111.5,0)" xlink:href="#J"/><use transform="matrix(0.05,0,0,0.05,116.5,0)" xlink:href="#K"/><use transform="matrix(0.05,0,0,0.05,120.45,0)" xlink:href="#L"/></g><path d="M240 0l2-218c-23 76-54 145-80 218h-23L58-218 59 0H30v-248h44l77 211c21-75 51-140 76-211h43V0h-30" id="Y"/><path d="M115-194c53 0 69 39 70 98 0 66-23 100-70 100C84 3 66-7 56-30L54 0H23l1-261h32v101c10-23 28-34 59-34zm-8 174c40 0 45-34 45-75 0-40-5-75-45-74-42 0-51 32-51 76 0 43 10 73 51 73" id="Z"/><g id="p"><use transform="matrix(0.05,0,0,0.05,0,0)" xlink:href="#y"/><use transform="matrix(0.05,0,0,0.05,14,0)" xlink:href="#z"/><use transform="matrix(0.05,0,0,0.05,19.95,0)" xlink:href="#A"/><use transform="matrix(0.05,0,0,0.05,29.950000000000003,0)" xlink:href="#B"/><use transform="matrix(0.05,0,0,0.05,39.95,0)" xlink:href="#C"/><use transform="matrix(0.05,0,0,0.05,49.95,0)" xlink:href="#Y"/><use transform="matrix(0.05,0,0,0.05,64.9,0)" xlink:href="#w"/><use transform="matrix(0.05,0,0,0.05,74.9,0)" xlink:href="#N"/><use transform="matrix(0.05,0,0,0.05,89.85000000000001,0)" xlink:href="#Z"/><use transform="matrix(0.05,0,0,0.05,99.85000000000001,0)" xlink:href="#w"/><use transform="matrix(0.05,0,0,0.05,109.85000000000001,0)" xlink:href="#z"/><use transform="matrix(0.05,0,0,0.05,115.80000000000001,0)" xlink:href="#L"/><use transform="matrix(0.05,0,0,0.05,124.80000000000001,0)" xlink:href="#J"/><use transform="matrix(0.05,0,0,0.05,129.8,0)" xlink:href="#K"/><use transform="matrix(0.05,0,0,0.05,133.75,0)" xlink:href="#L"/></g><g id="q"><use transform="matrix(0.05,0,0,0.05,0,0)" xlink:href="#y"/><use transform="matrix(0.05,0,0,0.05,14,0)" xlink:href="#z"/><use transform="matrix(0.05,0,0,0.05,19.95,0)" xlink:href="#A"/><use transform="matrix(0.05,0,0,0.05,29.950000000000003,0)" xlink:href="#B"/><use transform="matrix(0.05,0,0,0.05,39.95,0)" xlink:href="#C"/><use transform="matrix(0.05,0,0,0.05,49.95,0)" xlink:href="#W"/><use transform="matrix(0.05,0,0,0.05,59.95,0)" xlink:href="#E"/><use transform="matrix(0.05,0,0,0.05,63.900000000000006,0)" xlink:href="#L"/><use transform="matrix(0.05,0,0,0.05,72.9,0)" xlink:href="#Q"/><use transform="matrix(0.05,0,0,0.05,77.9,0)" xlink:href="#J"/><use transform="matrix(0.05,0,0,0.05,82.9,0)" xlink:href="#K"/><use transform="matrix(0.05,0,0,0.05,86.85000000000001,0)" xlink:href="#L"/></g><path d="M233-177c-1 41-23 64-60 70L243 0h-38l-65-103H63V0H30v-248c88 3 205-21 203 71zM63-129c60-2 137 13 137-47 0-61-80-42-137-45v92" id="aa"/><path d="M145-31C134-9 116 4 85 4 32 4 16-35 15-94c0-59 17-99 70-100 32-1 48 14 60 33 0-11-1-24 2-32h30l-1 268h-32zM93-21c41 0 51-33 51-76s-8-73-50-73c-40 0-46 35-46 75s5 74 45 74" id="ab"/><g id="r"><use transform="matrix(0.05,0,0,0.05,0,0)" xlink:href="#y"/><use transform="matrix(0.05,0,0,0.05,14,0)" xlink:href="#z"/><use transform="matrix(0.05,0,0,0.05,19.95,0)" xlink:href="#A"/><use transform="matrix(0.05,0,0,0.05,29.950000000000003,0)" xlink:href="#B"/><use transform="matrix(0.05,0,0,0.05,39.95,0)" xlink:href="#C"/><use transform="matrix(0.05,0,0,0.05,49.95,0)" xlink:href="#aa"/><use transform="matrix(0.05,0,0,0.05,62.900000000000006,0)" xlink:href="#w"/><use transform="matrix(0.05,0,0,0.05,72.9,0)" xlink:href="#ab"/><use transform="matrix(0.05,0,0,0.05,82.9,0)" xlink:href="#B"/><use transform="matrix(0.05,0,0,0.05,92.9,0)" xlink:href="#w"/><use transform="matrix(0.05,0,0,0.05,102.9,0)" xlink:href="#L"/><use transform="matrix(0.05,0,0,0.05,111.9,0)" xlink:href="#Q"/><use transform="matrix(0.05,0,0,0.05,116.9,0)" xlink:href="#L"/><use transform="matrix(0.05,0,0,0.05,125.9,0)" xlink:href="#J"/><use transform="matrix(0.05,0,0,0.05,130.9,0)" xlink:href="#K"/><use transform="matrix(0.05,0,0,0.05,134.85,0)" xlink:href="#L"/></g><g id="s"><use transform="matrix(0.05,0,0,0.05,0,0)" xlink:href="#Y"/><use transform="matrix(0.05,0,0,0.05,14.950000000000001,0)" xlink:href="#w"/><use transform="matrix(0.05,0,0,0.05,24.950000000000003,0)" xlink:href="#N"/><use transform="matrix(0.05,0,0,0.05,39.900000000000006,0)" xlink:href="#Z"/><use transform="matrix(0.05,0,0,0.05,49.900000000000006,0)" xlink:href="#w"/><use transform="matrix(0.05,0,0,0.05,59.900000000000006,0)" xlink:href="#z"/><use transform="matrix(0.05,0,0,0.05,65.85000000000001,0)" xlink:href="#L"/><use transform="matrix(0.05,0,0,0.05,74.85000000000001,0)" xlink:href="#W"/><use transform="matrix(0.05,0,0,0.05,84.85000000000001,0)" xlink:href="#E"/><use transform="matrix(0.05,0,0,0.05,88.80000000000001,0)" xlink:href="#L"/><use transform="matrix(0.05,0,0,0.05,97.80000000000001,0)" xlink:href="#Q"/><use transform="matrix(0.05,0,0,0.05,102.80000000000001,0)" xlink:href="#J"/><use transform="matrix(0.05,0,0,0.05,107.80000000000001,0)" xlink:href="#K"/><use transform="matrix(0.05,0,0,0.05,111.75,0)" xlink:href="#L"/></g><g id="t"><use transform="matrix(0.05,0,0,0.05,0,0)" xlink:href="#aa"/><use transform="matrix(0.05,0,0,0.05,12.950000000000001,0)" xlink:href="#w"/><use transform="matrix(0.05,0,0,0.05,22.950000000000003,0)" xlink:href="#ab"/><use transform="matrix(0.05,0,0,0.05,32.95,0)" xlink:href="#B"/><use transform="matrix(0.05,0,0,0.05,42.95,0)" xlink:href="#w"/><use transform="matrix(0.05,0,0,0.05,52.95,0)" xlink:href="#L"/><use transform="matrix(0.05,0,0,0.05,61.95,0)" xlink:href="#Q"/><use transform="matrix(0.05,0,0,0.05,66.95,0)" xlink:href="#W"/><use transform="matrix(0.05,0,0,0.05,76.95,0)" xlink:href="#E"/><use transform="matrix(0.05,0,0,0.05,80.9,0)" xlink:href="#L"/><use transform="matrix(0.05,0,0,0.05,89.9,0)" xlink:href="#Q"/><use transform="matrix(0.05,0,0,0.05,94.9,0)" xlink:href="#J"/><use transform="matrix(0.05,0,0,0.05,99.9,0)" xlink:href="#K"/><use transform="matrix(0.05,0,0,0.05,103.85000000000001,0)" xlink:href="#L"/></g></defs></g></svg>